/* XPM */
static char * bitcoin16_xpm[] = {
"16 16 98 2",
"  	c None",
". 	c #252525",
"+ 	c #252525",
"@ 	c #252525",
"# 	c #252525",
"$ 	c #252525",
"% 	c #252525",
"& 	c #252525",
"* 	c #252525",
"= 	c #252525",
"- 	c #252525",
"; 	c #252525",
"> 	c #252525",
", 	c #252525",
"' 	c #252525",
") 	c #252525",
"! 	c #252525",
"~ 	c #252525",
"{ 	c #252525",
"] 	c #252525",
"^ 	c #252525",
"/ 	c #252525",
"( 	c #252525",
"_ 	c #252525",
": 	c #252525",
"< 	c #252525",
"[ 	c #252425",
"} 	c #252525",
"| 	c #252525",
"1 	c #252525",
"2 	c #262A29",
"3 	c #2B413C",
"4 	c #252625",
"5 	c #252525",
"6 	c #252525",
"7 	c #252324",
"8 	c #2D5E53",
"9 	c #30695C",
"0 	c #252323",
"a 	c #252525",
"b 	c #252324",
"c 	c #263C37",
"d 	c #30A289",
"e 	c #2B574E",
"f 	c #252223",
"g 	c #252525",
"h 	c #252525",
"i 	c #252425",
"j 	c #242B29",
"k 	c #227B68",
"l 	c #28A98D",
"m 	c #234D43",
"n 	c #232726",
"o 	c #252525",
"p 	c #252525",
"q 	c #252525",
"r 	c #1E5B4E",
"s 	c #26A98C",
"t 	c #22A588",
"u 	c #12725D",
"v 	c #21302D",
"w 	c #252425",
"x 	c #252424",
"y 	c #243632",
"z 	c #2F8F7A",
"A 	c #31B799",
"B 	c #1C9B7F",
"C 	c #1E5146",
"D 	c #252424",
"E 	c #252525",
"F 	c #252525",
"G 	c #252726",
"H 	c #29453F",
"I 	c #2AA78B",
"J 	c #247B68",
"K 	c #252928",
"L 	c #252525",
"M 	c #252525",
"N 	c #252323",
"O 	c #2A4E46",
"P 	c #31A389",
"Q 	c #263E39",
"R 	c #252324",
"S 	c #252525",
"T 	c #252223",
"U 	c #2E5D53",
"V 	c #2F6659",
"W 	c #252324",
"X 	c #252525",
"Y 	c #252525",
"Z 	c #2A3F3A",
"` 	c #272E2C",
" .	c #252424",
"..	c #252525",
"+.	c #252525",
"@.	c #252525",
"#.	c #252525",
"$.	c #FFFFFF",
". + @ # # # # # # # # # # $ % & ",
"* ( ( ( ( ( ( ( ( _ ( ( ( ( ( = ",
"- ( ( ( ( ( ( : < [ } ( ( ( ( ; ",
"> ( ( ( ( ( | 1 2 3 4 5 ( ( ( , ",
"> ( ( ( ( ( 6 7 8 9 0 ( ( ( ( , ",
"> ( ( ( ( a b c d e f g ( ( ( , ",
"> ( ( ( h i j k l m n o ( ( ( , ",
"> ( ( ( p q r s t u v w ( ( ( , ",
"> ( ( ( x y z A B C D E ( ( ( , ",
"> ( ( ( F G H I J K L | ( ( ( , ",
"> ( ( ( M N O P Q R S ( ( ( ( , ",
"> ( ( ( ( T U V W X ( ( ( ( ( , ",
"> ( ( ( ( Y Z `  .h ( ( ( ( ( , ",
"' ( ( ( ( ..+.@.#.( ( ( ( ( ( , ",
") ( ( ( ( ( 6 ( ( ( ( ( ( ( ( ! ",
"~ ( { ] ] ] ] ] ] ] ] ] ] ^ ( / "};
