/* XPM */
static char * bitcoin64_xpm[] = {
"64 64 279 2",
"  	c None",
". 	c #252525",
"+ 	c #262827",
"@ 	c #252324",
"# 	c #2A3D38",
"$ 	c #2E5149",
"% 	c #252424",
"& 	c #252425",
"* 	c #262A29",
"= 	c #3B917D",
"- 	c #316055",
"; 	c #242223",
"> 	c #326B5F",
", 	c #45C8AA",
"' 	c #2C4943",
") 	c #252323",
"! 	c #2B4842",
"~ 	c #40BFA3",
"{ 	c #41BEA2",
"] 	c #293835",
"^ 	c #27312F",
"/ 	c #389F88",
"( 	c #42D4B3",
"_ 	c #3CA991",
": 	c #262D2C",
"< 	c #252626",
"[ 	c #317969",
"} 	c #3DC9AA",
"| 	c #3FCFAF",
"1 	c #37937E",
"2 	c #2B564C",
"3 	c #38BB9E",
"4 	c #3BC7A8",
"5 	c #3DCBAC",
"6 	c #327B6B",
"7 	c #273B36",
"8 	c #32A48A",
"9 	c #37C3A3",
"0 	c #38C3A4",
"a 	c #3AC6A7",
"b 	c #2E6458",
"c 	c #252223",
"d 	c #252B2A",
"e 	c #2C8471",
"f 	c #32BD9E",
"g 	c #34BE9F",
"h 	c #36C1A2",
"i 	c #37BEA0",
"j 	c #2A4F47",
"k 	c #286356",
"l 	c #2EB395",
"m 	c #30B89A",
"n 	c #32BB9C",
"o 	c #34B296",
"p 	c #283E39",
"q 	c #26453E",
"r 	c #29A287",
"s 	c #2CB395",
"t 	c #2EB597",
"u 	c #32BC9D",
"v 	c #31A289",
"w 	c #26312F",
"x 	c #25312E",
"y 	c #258A74",
"z 	c #27AE90",
"A 	c #29AF91",
"B 	c #2BB294",
"C 	c #2DB597",
"D 	c #2FBA9B",
"E 	c #2E907A",
"F 	c #252928",
"G 	c #252726",
"H 	c #236D5D",
"I 	c #23A88B",
"J 	c #25AA8D",
"K 	c #27AC8F",
"L 	c #2BB194",
"M 	c #2DB798",
"N 	c #2B7C6A",
"O 	c #225046",
"P 	c #209D81",
"Q 	c #21A588",
"R 	c #23A78A",
"S 	c #25A98C",
"T 	c #27AC8E",
"U 	c #29AE91",
"V 	c #286658",
"W 	c #233934",
"X 	c #1D8B73",
"Y 	c #1DA083",
"Z 	c #1FA185",
"` 	c #21A487",
" .	c #23A789",
"..	c #26AB8E",
"+.	c #29AD90",
"@.	c #235E51",
"#.	c #20332F",
"$.	c #203530",
"%.	c #1F3430",
"&.	c #1F342F",
"*.	c #222B29",
"=.	c #242B2A",
"-.	c #1C7360",
";.	c #199B7F",
">.	c #1B9C80",
",.	c #1D9F82",
"'.	c #20A386",
").	c #24A488",
"!.	c #0E8269",
"~.	c #0B7C63",
"{.	c #097A61",
"].	c #07785F",
"^.	c #096D57",
"/.	c #1E3530",
"(.	c #1D594C",
"_.	c #159378",
":.	c #17977B",
"<.	c #199A7D",
"[.	c #1A9B7F",
"}.	c #1D9E82",
"|.	c #3BC4A6",
"1.	c #2DB093",
"2.	c #118E73",
"3.	c #0C896E",
"4.	c #0A876C",
"5.	c #098469",
"6.	c #078167",
"7.	c #155144",
"8.	c #1F413A",
"9.	c #13876E",
"0.	c #139277",
"a.	c #17967A",
"b.	c #22A487",
"c.	c #39C2A4",
"d.	c #48D6B6",
"e.	c #2EB396",
"f.	c #149276",
"g.	c #108E72",
"h.	c #0F8C70",
"i.	c #0D896E",
"j.	c #0A886C",
"k.	c #106A57",
"l.	c #232B2A",
"m.	c #22302D",
"n.	c #12755F",
"o.	c #0E8D71",
"p.	c #1B9B7F",
"q.	c #33BA9C",
"r.	c #4AD9B9",
"s.	c #4BDBBB",
"t.	c #2CB194",
"u.	c #16967A",
"v.	c #149377",
"w.	c #139175",
"x.	c #0F8D71",
"y.	c #0F8068",
"z.	c #1F3C36",
"A.	c #242727",
"B.	c #145E4E",
"C.	c #0A876B",
"D.	c #2DB295",
"E.	c #47D5B5",
"F.	c #51E4C3",
"G.	c #2BAF92",
"H.	c #1A9A7E",
"I.	c #18997C",
"J.	c #159478",
"K.	c #1A5749",
"L.	c #18473D",
"M.	c #0E866C",
"N.	c #27AA8D",
"O.	c #44D1B1",
"P.	c #50E3C2",
"Q.	c #51E5C3",
"R.	c #2BB092",
"S.	c #1EA083",
"T.	c #1C9E81",
"U.	c #19997D",
"V.	c #159579",
"W.	c #187460",
"X.	c #242C2A",
"Y.	c #223A35",
"Z.	c #23927A",
"`.	c #3FC9AA",
" +	c #4FDEBE",
".+	c #50E1C0",
"++	c #4FE0BF",
"@+	c #46D3B3",
"#+	c #2CB193",
"$+	c #22A588",
"%+	c #1EA184",
"&+	c #188D73",
"*+	c #213F39",
"=+	c #273935",
"-+	c #305C52",
";+	c #335F55",
">+	c #325E54",
",+	c #325D54",
"'+	c #32685C",
")+	c #2CA58B",
"!+	c #24A88B",
"~+	c #22A689",
"{+	c #20A487",
"]+	c #1FA184",
"^+	c #1F5D4F",
"/+	c #242222",
"(+	c #242021",
"_+	c #253A35",
":+	c #29A489",
"<+	c #28AF91",
"[+	c #24A98C",
"}+	c #1FA386",
"|+	c #1F7E69",
"1+	c #242D2B",
"2+	c #274A43",
"3+	c #2CAF92",
"4+	c #2BB193",
"5+	c #28AE91",
"6+	c #26AC8E",
"7+	c #21997E",
"8+	c #24423C",
"9+	c #295B50",
"0+	c #2FB698",
"a+	c #2DB496",
"b+	c #25A88B",
"c+	c #246355",
"d+	c #2B6D5E",
"e+	c #31BB9D",
"f+	c #2FB799",
"g+	c #29B092",
"h+	c #268872",
"i+	c #252E2C",
"j+	c #2E806E",
"k+	c #33BFA0",
"l+	c #31BA9B",
"m+	c #2AA58A",
"n+	c #252828",
"o+	c #32937D",
"p+	c #36C2A3",
"q+	c #33BD9E",
"r+	c #31BA9C",
"s+	c #296A5B",
"t+	c #262F2D",
"u+	c #35A48B",
"v+	c #38C4A5",
"w+	c #36C0A1",
"x+	c #34BFA0",
"y+	c #2E927C",
"z+	c #283935",
"A+	c #39B498",
"B+	c #3AC7A7",
"C+	c #284942",
"D+	c #2A4640",
"E+	c #3CC1A3",
"F+	c #3CC9AA",
"G+	c #3AC5A6",
"H+	c #2E7062",
"I+	c #2D574E",
"J+	c #40CAAC",
"K+	c #3FCEAE",
"L+	c #369C86",
"M+	c #26302E",
"N+	c #316B5E",
"O+	c #43D3B3",
"P+	c #3EBFA2",
"Q+	c #2B4C45",
"R+	c #368170",
"S+	c #45D6B5",
"T+	c #337768",
"U+	c #252625",
"V+	c #3C9984",
"W+	c #3EAA92",
"X+	c #272C2B",
"Y+	c #3E9B86",
"Z+	c #2E524A",
"`+	c #283230",
" @	c #315D54",
".@	c #262727",
"+@	c #262828",
"    . . . . . . . . . . . . . . . . . . . . . . . . . . . . . . . . . . . . . . . . . . . . . . . . . . . . . . . . . . . .     ",
"  . . . . . . . . . . . . . . . . . . . . . . . . . . . . . . . . . . . . . . . . . . . . . . . . . . . . . . . . . . . . . .   ",
". . . . . . . . . . . . . . . . . . . . . . . . . . . . . . . . . . . . . . . . . . . . . . . . . . . . . . . . . . . . . . . . ",
". . . . . . . . . . . . . . . . . . . . . . . . . . . . . . . . . . . . . . . . . . . . . . . . . . . . . . . . . . . . . . . . ",
". . . . . . . . . . . . . . . . . . . . . . . . . . . . . . . . . . . . . . . . . . . . . . . . . . . . . . . . . . . . . . . . ",
". . . . . . . . . . . . . . . . . . . . . . . . . . . . . . . . . . . . . . . . . . . . . . . . . . . . . . . . . . . . . . . . ",
". . . . . . . . . . . . . . . . . . . . . . . . . . . . . . . . . . . . . . . . . . . . . . . . . . . . . . . . . . . . . . . . ",
". . . . . . . . . . . . . . . . . . . . . . . . . . . . . . . . . . . . . . . . . . . . . . . . . . . . . . . . . . . . . . . . ",
". . . . . . . . . . . . . . . . . . . . . . . . . . . . . . . . . . . . . . . . . . . . . . . . . . . . . . . . . . . . . . . . ",
". . . . . . . . . . . . . . . . . . . . . . . . . . . . . . . . . . . . . . . . . . . . . . . . . . . . . . . . . . . . . . . . ",
". . . . . . . . . . . . . . . . . . . . . . . . . . . . . . . . . . . . . . . . . . . . . . . . . . . . . . . . . . . . . . . . ",
". . . . . . . . . . . . . . . . . . . . . . . . . . . . . . . . . . . . . . . . . . . . . . . . . . . . . . . . . . . . . . . . ",
". . . . . . . . . . . . . . . . . . . . . . . . . . . . . . . . . . . . . . + . . . . . . . . . . . . . . . . . . . . . . . . . ",
". . . . . . . . . . . . . . . . . . . . . . . . . . . . . . . . . . . . @ # $ % . . . . . . . . . . . . . . . . . . . . . . . . ",
". . . . . . . . . . . . . . . . . . . . . . . . . . . . . . . . . . . & * = - ; . . . . . . . . . . . . . . . . . . . . . . . . ",
". . . . . . . . . . . . . . . . . . . . . . . . . . . . . . . . . . . % > , ' ) . . . . . . . . . . . . . . . . . . . . . . . . ",
". . . . . . . . . . . . . . . . . . . . . . . . . . . . . . . . . . ) ! ~ { ] % . . . . . . . . . . . . . . . . . . . . . . . . ",
". . . . . . . . . . . . . . . . . . . . . . . . . . . . . . . . . % ^ / ( _ : . . . . . . . . . . . . . . . . . . . . . . . . . ",
". . . . . . . . . . . . . . . . . . . . . . . . . . . . . . . . . < [ } | 1 < . . . . . . . . . . . . . . . . . . . . . . . . . ",
". . . . . . . . . . . . . . . . . . . . . . . . . . . . . . . . ) 2 3 4 5 6 ) . . . . . . . . . . . . . . . . . . . . . . . . . ",
". . . . . . . . . . . . . . . . . . . . . . . . . . . . . . . @ 7 8 9 0 a b c . . . . . . . . . . . . . . . . . . . . . . . . . ",
". . . . . . . . . . . . . . . . . . . . . . . . . . . . . . & d e f g h i j ) . . . . . . . . . . . . . . . . . . . . . . . . . ",
". . . . . . . . . . . . . . . . . . . . . . . . . . . . . . % k l m n g o p @ . . . . . . . . . . . . . . . . . . . . . . . . . ",
". . . . . . . . . . . . . . . . . . . . . . . . . . . . . @ q r s t m u v w % . . . . . . . . . . . . . . . . . . . . . . . . . ",
". . . . . . . . . . . . . . . . . . . . . . . . . . . . % x y z A B C D E F . . . . . . . . . . . . . . . . . . . . . . . . . . ",
". . . . . . . . . . . . . . . . . . . . . . . . . . . . G H I J K A L M N . . . . . . . . . . . . . . . . . . . . . . . . . . . ",
". . . . . . . . . . . . . . . . . . . . . . . . . . . % O P Q R S T U B V c % % % . . . . . . . . . . . . . . . . . . . . . . . ",
". . . . . . . . . . . . . . . . . . . . . . . . . . % W X Y Z `  .S ..+.@.#.$.%.&.*.. . . . . . . . . . . . . . . . . . . . . . ",
". . . . . . . . . . . . . . . . . . . . . . . . . & =.-.;.>.,.Z '.R l ).!.~.{.].^./.% . . . . . . . . . . . . . . . . . . . . . ",
". . . . . . . . . . . . . . . . . . . . . . . . . . (._.:.<.[.}.+.|.1.2.3.4.5.6.7.. . . . . . . . . . . . . . . . . . . . . . . ",
". . . . . . . . . . . . . . . . . . . . . . . . % 8.9.0._.a.b.c.d.e.f.g.h.i.j.k.l.& . . . . . . . . . . . . . . . . . . . . . . ",
". . . . . . . . . . . . . . . . . . . . . . . % m.n.o.2.p.q.r.s.t.u.v.w.2.x.y.z.% . . . . . . . . . . . . . . . . . . . . . . . ",
". . . . . . . . . . . . . . . . . . . . . . . A.B.C.f.D.E.F.r.G.H.I.a.J.w.2.K.. . . . . . . . . . . . . . . . . . . . . . . . . ",
". . . . . . . . . . . . . . . . . . . . . . % L.M.N.O.P.Q.d.R.S.T.[.U.a.V.W.X.& . . . . . . . . . . . . . . . . . . . . . . . . ",
". . . . . . . . . . . . . . . . . . . . . % Y.Z.`. +.+++@+#+$+'.%+}.p.<.&+*+% . . . . . . . . . . . . . . . . . . . . . . . . . ",
". . . . . . . . . . . . . . . . . . . . . % =+-+;+>+,+'+)+..!+~+{+]+}.p.^+. . . . . . . . . . . . . . . . . . . . . . . . . . . ",
". . . . . . . . . . . . . . . . . . . . . . % ; /+/+(+_+:+<+..[+~+` }+|+1+% . . . . . . . . . . . . . . . . . . . . . . . . . . ",
". . . . . . . . . . . . . . . . . . . . . . . . . . ) 2+3+4+5+6+S R 7+8+@ . . . . . . . . . . . . . . . . . . . . . . . . . . . ",
". . . . . . . . . . . . . . . . . . . . . . . . . . c 9+0+a+4+U T b+c+. . . . . . . . . . . . . . . . . . . . . . . . . . . . . ",
". . . . . . . . . . . . . . . . . . . . . . . . . . ) d+e+f+a+4+g+h+i+% . . . . . . . . . . . . . . . . . . . . . . . . . . . . ",
". . . . . . . . . . . . . . . . . . . . . . . . . . & j+k+l+f+C m+q @ . . . . . . . . . . . . . . . . . . . . . . . . . . . . . ",
". . . . . . . . . . . . . . . . . . . . . . . . . . n+o+p+q+r+0+s+. . . . . . . . . . . . . . . . . . . . . . . . . . . . . . . ",
". . . . . . . . . . . . . . . . . . . . . . . . . % t+u+v+w+x+y+t+% . . . . . . . . . . . . . . . . . . . . . . . . . . . . . . ",
". . . . . . . . . . . . . . . . . . . . . . . . . % z+A+B+v+o C+) . . . . . . . . . . . . . . . . . . . . . . . . . . . . . . . ",
". . . . . . . . . . . . . . . . . . . . . . . . . ) D+E+F+G+H+. . . . . . . . . . . . . . . . . . . . . . . . . . . . . . . . . ",
". . . . . . . . . . . . . . . . . . . . . . . . . c I+J+K+L+M+% . . . . . . . . . . . . . . . . . . . . . . . . . . . . . . . . ",
". . . . . . . . . . . . . . . . . . . . . . . . . ; N+O+P+Q+) . . . . . . . . . . . . . . . . . . . . . . . . . . . . . . . . . ",
". . . . . . . . . . . . . . . . . . . . . . . . . ) R+S+T+. . . . . . . . . . . . . . . . . . . . . . . . . . . . . . . . . . . ",
". . . . . . . . . . . . . . . . . . . . . . . . . U+V+W+^ % . . . . . . . . . . . . . . . . . . . . . . . . . . . . . . . . . . ",
". . . . . . . . . . . . . . . . . . . . . . . . . X+Y+Z+) . . . . . . . . . . . . . . . . . . . . . . . . . . . . . . . . . . . ",
". . . . . . . . . . . . . . . . . . . . . . . . % `+ @G . . . . . . . . . . . . . . . . . . . . . . . . . . . . . . . . . . . . ",
". . . . . . . . . . . . . . . . . . . . . . . . . .@+@. . . . . . . . . . . . . . . . . . . . . . . . . . . . . . . . . . . . . ",
". . . . . . . . . . . . . . . . . . . . . . . . . . . . . . . . . . . . . . . . . . . . . . . . . . . . . . . . . . . . . . . . ",
". . . . . . . . . . . . . . . . . . . . . . . . . . . . . . . . . . . . . . . . . . . . . . . . . . . . . . . . . . . . . . . . ",
". . . . . . . . . . . . . . . . . . . . . . . . . . . . . . . . . . . . . . . . . . . . . . . . . . . . . . . . . . . . . . . . ",
". . . . . . . . . . . . . . . . . . . . . . . . . . . . . . . . . . . . . . . . . . . . . . . . . . . . . . . . . . . . . . . . ",
". . . . . . . . . . . . . . . . . . . . . . . . . . . . . . . . . . . . . . . . . . . . . . . . . . . . . . . . . . . . . . . . ",
". . . . . . . . . . . . . . . . . . . . . . . . . . . . . . . . . . . . . . . . . . . . . . . . . . . . . . . . . . . . . . . . ",
". . . . . . . . . . . . . . . . . . . . . . . . . . . . . . . . . . . . . . . . . . . . . . . . . . . . . . . . . . . . . . . . ",
". . . . . . . . . . . . . . . . . . . . . . . . . . . . . . . . . . . . . . . . . . . . . . . . . . . . . . . . . . . . . . . . ",
". . . . . . . . . . . . . . . . . . . . . . . . . . . . . . . . . . . . . . . . . . . . . . . . . . . . . . . . . . . . . . . . ",
". . . . . . . . . . . . . . . . . . . . . . . . . . . . . . . . . . . . . . . . . . . . . . . . . . . . . . . . . . . . . . . . ",
"  . . . . . . . . . . . . . . . . . . . . . . . . . . . . . . . . . . . . . . . . . . . . . . . . . . . . . . . . . . . . . .   ",
"    . . . . . . . . . . . . . . . . . . . . . . . . . . . . . . . . . . . . . . . . . . . . . . . . . . . . . . . . . . . .     "};
