/* XPM */
static char * bitcoin32_xpm[] = {
"32 32 202 2",
"  	c None",
". 	c #252525",
"+ 	c #252525",
"@ 	c #252525",
"# 	c #252525",
"$ 	c #252525",
"% 	c #252525",
"& 	c #252525",
"* 	c #252525",
"= 	c #252525",
"- 	c #252525",
"; 	c #252525",
"> 	c #252525",
", 	c #252525",
"' 	c #252525",
") 	c #252525",
"! 	c #252525",
"~ 	c #252525",
"{ 	c #252525",
"] 	c #252525",
"^ 	c #252525",
"/ 	c #252525",
"( 	c #252525",
"_ 	c #252525",
": 	c #252525",
"< 	c #252525",
"[ 	c #252525",
"} 	c #252525",
"| 	c #252525",
"1 	c #252525",
"2 	c #252525",
"3 	c #252525",
"4 	c #252525",
"5 	c #252525",
"6 	c #252425",
"7 	c #252525",
"8 	c #252525",
"9 	c #252525",
"0 	c #252424",
"a 	c #272E2D",
"b 	c #28312F",
"c 	c #252424",
"d 	c #252525",
"e 	c #252626",
"f 	c #347164",
"g 	c #2B453F",
"h 	c #252323",
"i 	c #252525",
"j 	c #252323",
"k 	c #2D584F",
"l 	c #3DAD94",
"m 	c #283734",
"n 	c #252424",
"o 	c #252525",
"p 	c #252424",
"q 	c #273935",
"r 	c #37AB91",
"s 	c #38A38C",
"t 	c #262B2A",
"u 	c #252525",
"v 	c #252525",
"w 	c #252425",
"x 	c #252A29",
"y 	c #2D8370",
"z 	c #37C5A5",
"A 	c #328976",
"B 	c #252525",
"C 	c #252525",
"D 	c #252525",
"E 	c #252424",
"F 	c #275F52",
"G 	c #2DB295",
"H 	c #32BD9E",
"I 	c #2D7162",
"J 	c #252323",
"K 	c #252525",
"L 	c #252324",
"M 	c #24413B",
"N 	c #259C82",
"O 	c #29B092",
"P 	c #2DB496",
"Q 	c #295A4F",
"R 	c #252222",
"S 	c #252425",
"T 	c #252525",
"U 	c #252424",
"V 	c #242F2C",
"W 	c #1F806B",
"X 	c #21A688",
"Y 	c #24A98C",
"Z 	c #29AA8D",
"` 	c #235248",
" .	c #20312D",
"..	c #222D2B",
"+.	c #252525",
"@.	c #252525",
"#.	c #252525",
"$.	c #252626",
"%.	c #1D6152",
"&.	c #18997D",
"*.	c #1EA083",
"=.	c #2BB093",
"-.	c #22A386",
";.	c #0E8067",
">.	c #0A775F",
",.	c #19443B",
"'.	c #252424",
").	c #252525",
"!.	c #252424",
"~.	c #1D463D",
"{.	c #138A70",
"].	c #22A588",
"^.	c #39C2A4",
"/.	c #2DB295",
"(.	c #149377",
"_.	c #0E8D71",
":.	c #136856",
"<.	c #232A28",
"[.	c #252525",
"}.	c #252424",
"|.	c #213631",
"1.	c #1B8971",
"2.	c #35C1A2",
"3.	c #47D6B6",
"4.	c #32B99B",
"5.	c #1B9C7F",
"6.	c #16977B",
"7.	c #15846C",
"8.	c #213934",
"9.	c #252424",
"0.	c #252525",
"a.	c #252525",
"b.	c #252525",
"c.	c #275248",
"d.	c #378F7C",
"e.	c #40A18B",
"f.	c #33B498",
"g.	c #22A689",
"h.	c #1EA184",
"i.	c #1B9A7E",
"j.	c #1F554A",
"k.	c #252424",
"l.	c #252525",
"m.	c #252525",
"n.	c #252525",
"o.	c #262626",
"p.	c #252424",
"q.	c #263C37",
"r.	c #29A489",
"s.	c #26AC8F",
"t.	c #22A88A",
"u.	c #217A66",
"v.	c #252B29",
"w.	c #252525",
"x.	c #252525",
"y.	c #252323",
"z.	c #284B43",
"A.	c #2EB194",
"B.	c #2BB395",
"C.	c #279C82",
"D.	c #253E38",
"E.	c #252324",
"F.	c #252223",
"G.	c #2B5C51",
"H.	c #33BC9E",
"I.	c #2FB597",
"J.	c #286154",
"K.	c #252424",
"L.	c #252525",
"M.	c #252323",
"N.	c #2F7162",
"O.	c #38C6A7",
"P.	c #2F8D78",
"Q.	c #252C2A",
"R.	c #252425",
"S.	c #252525",
"T.	c #252424",
"U.	c #358976",
"V.	c #3AB89C",
"W.	c #29433D",
"X.	c #252324",
"Y.	c #252525",
"Z.	c #252525",
"`.	c #262928",
" +	c #3A9B85",
".+	c #317062",
"++	c #252424",
"@+	c #252525",
"#+	c #252424",
"$+	c #28312F",
"%+	c #367A6B",
"&+	c #272F2E",
"*+	c #252424",
"=+	c #252525",
"-+	c #262C2B",
";+	c #283532",
">+	c #252424",
",+	c #252525",
"'+	c #252525",
")+	c #252424",
"!+	c #252525",
"~+	c #FFFFFF",
"  + @ # $ $ $ $ $ $ $ $ $ $ $ $ $ $ $ $ $ $ $ $ $ $ $ $ % & *   ",
"- 4 4 4 4 4 4 4 4 4 4 4 4 4 4 4 4 4 4 4 4 4 4 4 4 4 4 4 4 4 4 ; ",
"> 4 4 4 4 4 4 4 4 4 4 4 4 4 4 4 4 4 4 4 4 4 4 4 4 4 4 4 4 4 4 , ",
"' 4 4 4 4 4 4 4 4 4 4 4 4 4 4 4 4 4 4 4 4 4 4 4 4 4 4 4 4 4 4 ) ",
"! 4 4 4 4 4 4 4 4 4 4 4 4 4 4 4 4 4 4 4 4 4 4 4 4 4 4 4 4 4 4 ~ ",
"! 4 4 4 4 4 4 4 4 4 4 4 4 4 4 4 4 5 6 7 8 4 4 4 4 4 4 4 4 4 4 ~ ",
"! 4 4 4 4 4 4 4 4 4 4 4 4 4 4 4 9 0 a b c 4 4 4 4 4 4 4 4 4 4 ~ ",
"! 4 4 4 4 4 4 4 4 4 4 4 4 4 4 4 d e f g h 4 4 4 4 4 4 4 4 4 4 ~ ",
"! 4 4 4 4 4 4 4 4 4 4 4 4 4 4 i j k l m n 4 4 4 4 4 4 4 4 4 4 ~ ",
"! 4 4 4 4 4 4 4 4 4 4 4 4 4 o p q r s t u 4 4 4 4 4 4 4 4 4 4 ~ ",
"! 4 4 4 4 4 4 4 4 4 4 4 4 v w x y z A B C 4 4 4 4 4 4 4 4 4 4 ~ ",
"! 4 4 4 4 4 4 4 4 4 4 4 4 D E F G H I J 4 4 4 4 4 4 4 4 4 4 4 ~ ",
"! 4 4 4 4 4 4 4 4 4 4 4 K L M N O P Q R S T 4 4 4 4 4 4 4 4 4 ~ ",
"! 4 4 4 4 4 4 4 4 4 4 i U V W X Y Z `  ...+.@.4 4 4 4 4 4 4 4 ~ ",
"! 4 4 4 4 4 4 4 4 4 4 #.$.%.&.*.=.-.;.>.,.'.@.4 4 4 4 4 4 4 4 ~ ",
"! 4 4 4 4 4 4 4 4 4 ).!.~.{.].^./.(._.:.<.[.4 4 4 4 4 4 4 4 4 ~ ",
"! 4 4 4 4 4 4 4 4 4 }.|.1.2.3.4.5.6.7.8.9.0.4 4 4 4 4 4 4 4 4 ~ ",
"! 4 4 4 4 4 4 4 4 a.b.c.d.e.f.g.h.i.j.k.l.4 4 4 4 4 4 4 4 4 4 ~ ",
"! 4 4 4 4 4 4 4 4 m.n.o.p.q.r.s.t.u.v.w.v 4 4 4 4 4 4 4 4 4 4 ~ ",
"! 4 4 4 4 4 4 4 4 4 4 x.y.z.A.B.C.D.E.o 4 4 4 4 4 4 4 4 4 4 4 ~ ",
"! 4 4 4 4 4 4 4 4 4 4 4 F.G.H.I.J.K.L.4 4 4 4 4 4 4 4 4 4 4 4 ~ ",
"! 4 4 4 4 4 4 4 4 4 4 4 M.N.O.P.Q.R.v 4 4 4 4 4 4 4 4 4 4 4 4 ~ ",
"! 4 4 4 4 4 4 4 4 4 4 S.T.U.V.W.X.Y.4 4 4 4 4 4 4 4 4 4 4 4 4 ~ ",
"! 4 4 4 4 4 4 4 4 4 4 Z.`. +.+++@+4 4 4 4 4 4 4 4 4 4 4 4 4 4 ~ ",
"! 4 4 4 4 4 4 4 4 4 4 #+$+%+&+*+v 4 4 4 4 4 4 4 4 4 4 4 4 4 4 ~ ",
"! 4 4 4 4 4 4 4 4 4 4 =+-+;+>+,+4 4 4 4 4 4 4 4 4 4 4 4 4 4 4 ~ ",
"! 4 4 4 4 4 4 4 4 4 4 9 '+)+!+4 4 4 4 4 4 4 4 4 4 4 4 4 4 4 4 ~ ",
"! 4 4 4 4 4 4 4 4 4 4 4 4 4 4 4 4 4 4 4 4 4 4 4 4 4 4 4 4 4 4 ~ ",
"{ 4 4 4 4 4 4 4 4 4 4 4 4 4 4 4 4 4 4 4 4 4 4 4 4 4 4 4 4 4 4 ~ ",
"] 4 4 4 4 4 4 4 4 4 4 4 4 4 4 4 4 4 4 4 4 4 4 4 4 4 4 4 4 4 4 ^ ",
"/ 4 4 4 4 4 4 4 4 4 4 4 4 4 4 4 4 4 4 4 4 4 4 4 4 4 4 4 4 4 4 ( ",
"  : < [ } } } } } } } } } } } } } } } } } } } } } } } } | 1 2   "};
