<?xml version="1.0" encoding="UTF-8" standalone="no"?>
<!-- Created with Inkscape (http://www.inkscape.org/) -->

<svg
   xmlns:dc="http://purl.org/dc/elements/1.1/"
   xmlns:cc="http://creativecommons.org/ns#"
   xmlns:rdf="http://www.w3.org/1999/02/22-rdf-syntax-ns#"
   xmlns:svg="http://www.w3.org/2000/svg"
   xmlns="http://www.w3.org/2000/svg"
   xmlns:sodipodi="http://sodipodi.sourceforge.net/DTD/sodipodi-0.dtd"
   xmlns:inkscape="http://www.inkscape.org/namespaces/inkscape"
   width="256"
   height="256"
   viewBox="0 0 256 256"
   id="svg2"
   version="1.1"
   inkscape:version="0.91 r13725"
   sodipodi:docname="browse.svg"
   inkscape:export-filename="/home/daniel/cc/Bolt Wallet/src/qt/res/icons/browse.png"
   inkscape:export-xdpi="90"
   inkscape:export-ydpi="90">
  <defs
     id="defs4" />
  <sodipodi:namedview
     id="base"
     pagecolor="#ffffff"
     bordercolor="#666666"
     borderopacity="1.0"
     inkscape:pageopacity="0.0"
     inkscape:pageshadow="2"
     inkscape:zoom="1"
     inkscape:cx="-231.81271"
     inkscape:cy="155.30819"
     inkscape:document-units="px"
     inkscape:current-layer="layer1"
     showgrid="false"
     units="px"
     inkscape:window-width="1366"
     inkscape:window-height="718"
     inkscape:window-x="0"
     inkscape:window-y="25"
     inkscape:window-maximized="1" />
  <metadata
     id="metadata7">
    <rdf:RDF>
      <cc:Work
         rdf:about="">
        <dc:format>image/svg+xml</dc:format>
        <dc:type
           rdf:resource="http://purl.org/dc/dcmitype/StillImage" />
        <dc:title />
      </cc:Work>
    </rdf:RDF>
  </metadata>
  <g
     inkscape:label="Ebene 1"
     inkscape:groupmode="layer"
     id="layer1"
     transform="translate(0,-796.36216)">
    <g
       style="font-style:normal;font-variant:normal;font-weight:normal;font-stretch:normal;font-size:263.30160522px;line-height:125%;font-family:FontAwesome;-inkscape-font-specification:'FontAwesome, Normal';text-align:start;letter-spacing:0px;word-spacing:0px;writing-mode:lr-tb;text-anchor:start;fill:#333333;fill-opacity:1;stroke:none;stroke-width:1px;stroke-linecap:butt;stroke-linejoin:miter;stroke-opacity:1"
       id="text3649">
      <path
         d="m 156.21111,914.95845 c 0,5.14265 -4.26106,9.4037 -9.40371,9.4037 l -37.6148,0 c -5.14265,0 -9.403705,-4.26105 -9.403705,-9.4037 0,-5.14265 4.261055,-9.4037 9.403705,-9.4037 l 37.6148,0 c 5.14265,0 9.40371,4.26105 9.40371,9.4037 z m 84.63331,-28.21111 c 0,-5.14264 -4.26105,-9.4037 -9.4037,-9.4037 l -206.88144,0 c -5.142649,0 -9.403701,4.26106 -9.403701,9.4037 l 0,141.05556 c 0,5.1426 4.261052,9.4037 9.403701,9.4037 l 206.88144,0 c 5.14265,0 9.4037,-4.2611 9.4037,-9.4037 l 0,-141.05556 z m 9.4037,-65.82591 c 0,-5.14265 -4.26105,-9.4037 -9.4037,-9.4037 l -225.688841,0 c -5.14265,0 -9.4037022,4.26105 -9.4037022,9.4037 l 0,37.61481 c 0,5.14265 4.2610522,9.4037 9.4037022,9.4037 l 225.688841,0 c 5.14265,0 9.4037,-4.26105 9.4037,-9.4037 l 0,-37.61481 z"
         style="font-style:normal;font-variant:normal;font-weight:normal;font-stretch:normal;font-size:263.3036499px;line-height:125%;font-family:FontAwesome;-inkscape-font-specification:'FontAwesome, Normal';text-align:start;writing-mode:lr-tb;text-anchor:start;fill:#333333;fill-opacity:1"
         id="path3336" />
    </g>
  </g>
</svg>
