<?xml version="1.0" encoding="UTF-8" standalone="no"?>
<!-- Created with Inkscape (http://www.inkscape.org/) -->

<svg
   xmlns:dc="http://purl.org/dc/elements/1.1/"
   xmlns:cc="http://creativecommons.org/ns#"
   xmlns:rdf="http://www.w3.org/1999/02/22-rdf-syntax-ns#"
   xmlns:svg="http://www.w3.org/2000/svg"
   xmlns="http://www.w3.org/2000/svg"
   xmlns:xlink="http://www.w3.org/1999/xlink"
   xmlns:sodipodi="http://sodipodi.sourceforge.net/DTD/sodipodi-0.dtd"
   xmlns:inkscape="http://www.inkscape.org/namespaces/inkscape"
   width="256"
   height="256"
   id="svg2987"
   version="1.1"
   inkscape:version="0.91 r13725"
   sodipodi:docname="clock1.svg"
   inkscape:export-filename="/home/daniel/cc/Bolt Wallet/src/qt/res/icons/clock1.png"
   inkscape:export-xdpi="90"
   inkscape:export-ydpi="90">
  <defs
     id="defs2989">
    <linearGradient
       id="linearGradient4465">
      <stop
         id="stop4467"
         offset="0"
         style="stop-color:#c1c1c1;stop-opacity:1;" />
      <stop
         id="stop4469"
         offset="1"
         style="stop-color:#8c8c8c;stop-opacity:1;" />
    </linearGradient>
    <linearGradient
       id="linearGradient4424">
      <stop
         style="stop-color:#000000;stop-opacity:1;"
         offset="0"
         id="stop4426" />
      <stop
         style="stop-color:#b3b3b3;stop-opacity:1;"
         offset="1"
         id="stop4428" />
    </linearGradient>
    <linearGradient
       id="linearGradient4357">
      <stop
         id="stop4359"
         offset="0"
         style="stop-color:#ffffff;stop-opacity:1;" />
      <stop
         style="stop-color:#ff84a6;stop-opacity:0.49803922;"
         offset="0.36363637"
         id="stop4473" />
      <stop
         id="stop4361"
         offset="1"
         style="stop-color:#ff0a4d;stop-opacity:0;" />
    </linearGradient>
    <linearGradient
       id="linearGradient4347">
      <stop
         id="stop4349"
         offset="0"
         style="stop-color:#909090;stop-opacity:1;" />
      <stop
         id="stop4351"
         offset="1"
         style="stop-color:#3c3c3c;stop-opacity:1;" />
    </linearGradient>
    <linearGradient
       id="linearGradient3767">
      <stop
         style="stop-color:#ff8282;stop-opacity:1;"
         offset="0"
         id="stop3769" />
      <stop
         style="stop-color:#ff1919;stop-opacity:1;"
         offset="1"
         id="stop3771" />
    </linearGradient>
    <linearGradient
       inkscape:collect="always"
       xlink:href="#linearGradient4347"
       id="linearGradient3779"
       x1="2.224874"
       y1="2.8301363"
       x2="14.038582"
       y2="13.171574"
       gradientUnits="userSpaceOnUse" />
    <filter
       inkscape:collect="always"
       id="filter4339">
      <feGaussianBlur
         inkscape:collect="always"
         stdDeviation="0.3240906"
         id="feGaussianBlur4341" />
    </filter>
    <linearGradient
       inkscape:collect="always"
       xlink:href="#linearGradient3767"
       id="linearGradient4345"
       gradientUnits="userSpaceOnUse"
       x1="2.224874"
       y1="2.8301363"
       x2="14.038582"
       y2="13.171574"
       gradientTransform="matrix(12.750961,0,0,12.77107,25.714021,-217.09801)" />
    <linearGradient
       inkscape:collect="always"
       xlink:href="#linearGradient4424"
       id="linearGradient4430"
       x1="10.740074"
       y1="16.148634"
       x2="6.3055735"
       y2="-1.2798394"
       gradientUnits="userSpaceOnUse"
       gradientTransform="matrix(10.76802,-6.2267236,6.2169192,10.785002,-10.757381,-147.54923)" />
    <radialGradient
       inkscape:collect="always"
       xlink:href="#linearGradient4357"
       id="radialGradient4440"
       gradientUnits="userSpaceOnUse"
       gradientTransform="matrix(22.384924,0.15205455,-0.19285813,28.028719,-51.627851,-236.80212)"
       cx="8.1975746"
       cy="-0.080271922"
       fx="8.1975746"
       fy="-0.080271922"
       r="7.7781744" />
    <linearGradient
       inkscape:collect="always"
       xlink:href="#linearGradient4465"
       id="linearGradient4471"
       gradientUnits="userSpaceOnUse"
       x1="2.224874"
       y1="2.8301363"
       x2="14.038582"
       y2="13.171574"
       gradientTransform="matrix(12.750961,0,0,12.77107,25.714021,-217.09801)" />
  </defs>
  <sodipodi:namedview
     id="base"
     pagecolor="#ffffff"
     bordercolor="#666666"
     borderopacity="1.0"
     inkscape:pageopacity="0.0"
     inkscape:pageshadow="2"
     inkscape:zoom="1.4142136"
     inkscape:cx="171.33313"
     inkscape:cy="174.96377"
     inkscape:current-layer="layer3"
     showgrid="true"
     inkscape:grid-bbox="true"
     inkscape:document-units="px"
     inkscape:window-width="1366"
     inkscape:window-height="718"
     inkscape:window-x="0"
     inkscape:window-y="25"
     inkscape:window-maximized="1"
     showguides="true"
     inkscape:guide-bbox="true" />
  <metadata
     id="metadata2992">
    <rdf:RDF>
      <cc:Work
         rdf:about="">
        <dc:format>image/svg+xml</dc:format>
        <dc:type
           rdf:resource="http://purl.org/dc/dcmitype/StillImage" />
        <dc:title></dc:title>
      </cc:Work>
    </rdf:RDF>
  </metadata>
  <g
     inkscape:groupmode="layer"
     id="layer4"
     inkscape:label="Shadow"
     style="display:inline"
     transform="translate(0,240)">
    <circle
       style="display:inline;fill:url(#linearGradient3779);fill-opacity:1;stroke:none;filter:url(#filter4339)"
       id="path2997"
       transform="matrix(15.558841,0,0,15.459009,2.8549468,-237.73489)"
       cx="8.0433397"
       cy="8.1334372"
       r="7.7781744" />
  </g>
  <g
     id="layer1"
     inkscape:label="Clock"
     inkscape:groupmode="layer"
     style="display:inline"
     transform="translate(0,240)">
    <g
       id="g4198"
       transform="matrix(1.1172594,0,0,1.1083425,-15.31571,13.492425)">
      <ellipse
         ry="99.335609"
         rx="99.179199"
         cy="-113.22531"
         cx="128.27434"
         style="display:inline;fill:url(#linearGradient4345);fill-opacity:1;stroke:none"
         id="path4343" />
      <path
         sodipodi:end="4.7159107"
         sodipodi:start="5.675432"
         d="m 209.69382,-169.94838 a 99.179199,99.335609 0 0 1 -7.0632,122.459312 99.179199,99.335609 0 0 1 -120.443679,22.222898 99.179199,99.335609 0 0 1 -50.168365,-111.8996 99.179199,99.335609 0 0 1 96.605044,-75.39453 l -0.34928,99.33499 z"
         sodipodi:ry="99.335609"
         sodipodi:rx="99.179199"
         sodipodi:cy="-113.22531"
         sodipodi:cx="128.27434"
         id="path4462"
         style="display:inline;fill:url(#linearGradient4471);fill-opacity:1;stroke:none"
         sodipodi:type="arc" />
    </g>
  </g>
  <g
     inkscape:groupmode="layer"
     id="layer2"
     inkscape:label="Ticks"
     style="display:inline"
     transform="translate(0,240)">
    <g
       id="g4202"
       transform="matrix(1.1172594,0,0,1.1083425,-17.558677,14.723798)">
      <path
         inkscape:connector-curvature="0"
         d="m 97.436914,-180.90437 c 3.111616,5.39798 1.415702,12.21324 -3.787935,15.22229 -5.203637,3.00906 -11.944482,1.07246 -15.0561,-4.32552 -3.111619,-5.39798 -1.415703,-12.21323 3.787934,-15.22229 5.203637,-3.00906 11.944482,-1.07246 15.056101,4.32552 z m -28.831224,25.36683 c 5.389481,3.11652 7.323034,9.868 4.318713,15.07984 -3.004322,5.21185 -9.808842,6.91044 -15.198322,3.79391 -5.389481,-3.11653 -7.323034,-9.868 -4.318714,-15.07984 3.004321,-5.21185 9.808842,-6.91044 15.198323,-3.79391 z m -12.305133,36.40665 c 6.223236,0 11.268165,4.87865 11.268166,10.89676 0,6.01812 -5.04493,10.896771 -11.268167,10.89677 -6.223237,10e-7 -11.268166,-4.87865 -11.268166,-10.89677 10e-7,-6.01812 5.044929,-10.89676 11.268167,-10.89676 z m 7.518106,37.69136 c 5.389481,-3.116525 12.194001,-1.417935 15.198323,3.793909 3.004321,5.211843 1.070767,11.963319 -4.318714,15.079845 -5.389481,3.116525 -12.194001,1.417935 -15.198323,-3.793909 -3.004321,-5.211843 -1.070767,-11.963319 4.318714,-15.079845 z m 25.326881,28.876693 c 3.111619,-5.39798 9.852463,-7.334585 15.056096,-4.325526 5.20364,3.009058 6.89955,9.82431 3.78794,15.222288 -3.11162,5.39798 -9.852466,7.334586 -15.056102,4.325527 -5.203637,-3.009058 -6.899552,-9.824309 -3.787934,-15.222289 z m 36.349316,12.324533 c 1e-5,-6.233044 4.87097,-11.285936 10.87962,-11.285931 6.00864,-7e-6 10.87961,5.052888 10.8796,11.285931 0,6.233055 -4.87097,11.285936 -10.8796,11.285942 -6.00865,-4e-6 -10.87961,-5.052888 -10.87962,-11.285942 z m 37.63202,-7.529962 c -3.11162,-5.39798 -1.4157,-12.213232 3.78793,-15.222292 5.20364,-3.009059 11.94448,-1.072454 15.0561,4.325525 3.11163,5.397991 1.41571,12.213232 -3.78793,15.222292 -5.20364,3.009059 -11.94448,1.072465 -15.0561,-4.325525 z m 28.83122,-25.366817 c -5.38949,-3.116529 -7.32304,-9.868002 -4.31872,-15.079839 3.00433,-5.211853 9.80884,-6.910469 15.19833,-3.793918 5.38948,3.116529 7.32304,9.868002 4.31871,15.079855 -3.00432,5.211837 -9.80882,6.910463 -15.19832,3.793902 z m 12.30513,-36.406647 c -6.22324,0 -11.26816,-4.87865 -11.26816,-10.89677 0,-6.01812 5.04492,-10.89677 11.26816,-10.89677 6.22324,-1e-5 11.26817,4.87865 11.26818,10.89677 -1e-5,6.01812 -5.04494,10.89676 -11.26818,10.89677 z m -7.5181,-37.69137 c -5.38948,3.11653 -12.194,1.41794 -15.19832,-3.7939 -3.00433,-5.21185 -1.07077,-11.96332 4.31871,-15.07985 5.38948,-3.11652 12.194,-1.41793 15.19832,3.79391 3.00432,5.21184 1.07077,11.96332 -4.31871,15.07984 z m -25.32688,-28.87669 c -3.11162,5.39798 -9.85246,7.33459 -15.05609,4.32552 -5.20365,-3.00905 -6.89957,-9.8243 -3.78794,-15.22229 3.11162,-5.39798 9.85246,-7.33458 15.0561,-4.32552 5.20363,3.00906 6.89958,9.82429 3.78793,15.22229 z m -36.34932,-12.32454 c 0,6.23305 -4.87097,11.28594 -10.87961,11.28594 -6.00864,-1e-5 -10.87962,-5.05289 -10.87962,-11.28594 0,-6.23305 4.87098,-11.28594 10.87962,-11.28594 6.00864,0 10.87961,5.05289 10.87961,11.28594 z"
         style="display:inline;fill:url(#linearGradient4430);fill-opacity:1;stroke:none"
         id="use4309" />
      <path
         inkscape:connector-curvature="0"
         id="path4436"
         d="m 126.36524,-185.92194 0,73.22627"
         style="display:inline;fill:none;stroke:#000000;stroke-width:13.93687534px;stroke-linecap:butt;stroke-linejoin:miter;stroke-opacity:1" />
      <path
         inkscape:connector-curvature="0"
         id="path4438"
         d="m 124.30974,-120.20154 41.85016,2.46565"
         style="display:inline;fill:none;stroke:#000000;stroke-width:13.93687534px;stroke-linecap:butt;stroke-linejoin:miter;stroke-opacity:1" />
    </g>
  </g>
  <g
     inkscape:groupmode="layer"
     id="layer3"
     inkscape:label="Shine"
     style="display:inline"
     transform="translate(0,240)">
    <ellipse
       style="display:inline;fill:url(#radialGradient4440);fill-opacity:1;stroke:none"
       id="path4353"
       cx="128"
       cy="-112"
       rx="104.97431"
       ry="105.26695" />
  </g>
</svg>
