<?xml version="1.0" encoding="UTF-8" standalone="no"?>
<!-- Created with Inkscape (http://www.inkscape.org/) -->

<svg
   xmlns:dc="http://purl.org/dc/elements/1.1/"
   xmlns:cc="http://creativecommons.org/ns#"
   xmlns:rdf="http://www.w3.org/1999/02/22-rdf-syntax-ns#"
   xmlns:svg="http://www.w3.org/2000/svg"
   xmlns="http://www.w3.org/2000/svg"
   xmlns:sodipodi="http://sodipodi.sourceforge.net/DTD/sodipodi-0.dtd"
   xmlns:inkscape="http://www.inkscape.org/namespaces/inkscape"
   width="256"
   height="256"
   viewBox="0 0 256 256"
   id="svg2"
   version="1.1"
   inkscape:version="0.91 r13725"
   sodipodi:docname="configure.svg"
   inkscape:export-filename="/home/daniel/cc/Bolt Wallet/src/qt/res/icons/configure.png"
   inkscape:export-xdpi="90"
   inkscape:export-ydpi="90">
  <defs
     id="defs4" />
  <sodipodi:namedview
     id="base"
     pagecolor="#ffffff"
     bordercolor="#666666"
     borderopacity="1.0"
     inkscape:pageopacity="0.0"
     inkscape:pageshadow="2"
     inkscape:zoom="0.70710678"
     inkscape:cx="-370.69659"
     inkscape:cy="81.918678"
     inkscape:document-units="px"
     inkscape:current-layer="layer1"
     showgrid="false"
     units="px"
     inkscape:window-width="1366"
     inkscape:window-height="718"
     inkscape:window-x="0"
     inkscape:window-y="25"
     inkscape:window-maximized="1" />
  <metadata
     id="metadata7">
    <rdf:RDF>
      <cc:Work
         rdf:about="">
        <dc:format>image/svg+xml</dc:format>
        <dc:type
           rdf:resource="http://purl.org/dc/dcmitype/StillImage" />
        <dc:title />
      </cc:Work>
    </rdf:RDF>
  </metadata>
  <g
     inkscape:label="Ebene 1"
     inkscape:groupmode="layer"
     id="layer1"
     transform="translate(0,-796.36216)">
    <g
       style="font-style:normal;font-variant:normal;font-weight:normal;font-stretch:normal;font-size:265.81121826px;line-height:125%;font-family:FontAwesome;-inkscape-font-specification:'FontAwesome, Normal';text-align:start;letter-spacing:0px;word-spacing:0px;writing-mode:lr-tb;text-anchor:start;fill:#333333;fill-opacity:1;stroke:none;stroke-width:1px;stroke-linecap:butt;stroke-linejoin:miter;stroke-opacity:1"
       id="text3649">
      <path
         d="m 60.13804,1001.8656 c 0,5.1917 -4.301632,9.4933 -9.493258,9.4933 -5.191625,0 -9.493258,-4.3016 -9.493258,-9.4933 0,-5.1916 4.301633,-9.49323 9.493258,-9.49323 5.191626,0 9.493258,4.30163 9.493258,9.49323 z m 95.52591,-62.29948 c -19.43152,-7.71327 -35.00639,-23.28814 -42.71966,-42.71966 l -101.0142,101.0142 c -3.5599714,3.55994 -5.6366215,8.45494 -5.6366215,13.49824 0,5.0433 2.0766501,9.9382 5.6366215,13.3499 l 15.723209,16.0199 c 3.559971,3.4116 8.454932,5.4882 13.498225,5.4882 5.043294,0 9.938255,-2.0766 13.349894,-5.4882 L 155.66395,939.56612 Z m 94.04258,-64.52448 c 0,-2.96664 -1.77998,-5.19163 -4.74663,-5.19163 -2.96664,0 -37.3797,21.6565 -42.27466,24.47481 l -28.62811,-15.87154 0,-33.2264 43.46132,-25.06814 c 1.33499,-0.88999 2.37332,-2.52165 2.37332,-4.1533 0,-1.77998 -0.88999,-3.11497 -2.37332,-4.1533 -9.04826,-6.08162 -23.13981,-9.34492 -33.96806,-9.34492 -36.63804,0 -66.4528,29.81476 -66.4528,66.4528 0,36.63804 29.81476,66.4528 66.4528,66.4528 28.03478,0 53.39958,-18.24485 62.7445,-44.64797 1.63166,-4.74663 3.41164,-10.82825 3.41164,-15.72321 z"
         style="fill:#333333;fill-opacity:1"
         id="path3336" />
    </g>
  </g>
</svg>
