<?xml version="1.0" encoding="UTF-8" standalone="no"?>
<!-- Created with Inkscape (http://www.inkscape.org/) -->

<svg
   xmlns:dc="http://purl.org/dc/elements/1.1/"
   xmlns:cc="http://creativecommons.org/ns#"
   xmlns:rdf="http://www.w3.org/1999/02/22-rdf-syntax-ns#"
   xmlns:svg="http://www.w3.org/2000/svg"
   xmlns="http://www.w3.org/2000/svg"
   xmlns:sodipodi="http://sodipodi.sourceforge.net/DTD/sodipodi-0.dtd"
   xmlns:inkscape="http://www.inkscape.org/namespaces/inkscape"
   width="256"
   height="256"
   viewBox="0 0 256 256"
   id="svg2"
   version="1.1"
   inkscape:version="0.91 r13725"
   sodipodi:docname="configfile.svg"
   inkscape:export-filename="/home/daniel/cc/Bolt Wallet/src/qt/res/icons/configfile.png"
   inkscape:export-xdpi="90"
   inkscape:export-ydpi="90">
  <defs
     id="defs4" />
  <sodipodi:namedview
     id="base"
     pagecolor="#ffffff"
     bordercolor="#666666"
     borderopacity="1.0"
     inkscape:pageopacity="0.0"
     inkscape:pageshadow="2"
     inkscape:zoom="1.4142136"
     inkscape:cx="-146.74061"
     inkscape:cy="85.031938"
     inkscape:document-units="px"
     inkscape:current-layer="layer1"
     showgrid="false"
     units="px"
     inkscape:window-width="1366"
     inkscape:window-height="718"
     inkscape:window-x="0"
     inkscape:window-y="25"
     inkscape:window-maximized="1" />
  <metadata
     id="metadata7">
    <rdf:RDF>
      <cc:Work
         rdf:about="">
        <dc:format>image/svg+xml</dc:format>
        <dc:type
           rdf:resource="http://purl.org/dc/dcmitype/StillImage" />
        <dc:title />
      </cc:Work>
    </rdf:RDF>
  </metadata>
  <g
     inkscape:label="Ebene 1"
     inkscape:groupmode="layer"
     id="layer1"
     transform="translate(0,-796.36216)">
    <g
       style="font-style:normal;font-variant:normal;font-weight:normal;font-stretch:normal;font-size:245.80174255px;line-height:125%;font-family:FontAwesome;-inkscape-font-specification:'FontAwesome, Normal';text-align:start;letter-spacing:0px;word-spacing:0px;writing-mode:lr-tb;text-anchor:start;fill:#333333;fill-opacity:1;stroke:none;stroke-width:1px;stroke-linecap:butt;stroke-linejoin:miter;stroke-opacity:1"
       id="text3649">
      <path
         d="M 224.01705,853.58387 181.22088,810.7877 c -5.07519,-5.07519 -15.22556,-9.32737 -22.49542,-9.32737 l -122.901829,0 c -7.269862,0 -13.168052,5.89819 -13.168052,13.16805 l 0,219.46752 c 0,7.2699 5.89819,13.1681 13.168052,13.1681 l 184.352739,0 c 7.26986,0 13.16805,-5.8982 13.16805,-13.1681 l 0,-158.01661 c 0,-7.26986 -4.25218,-17.42023 -9.32737,-22.49542 z m -60.90224,-33.4688 c 2.33184,0.823 4.66368,2.05751 5.62385,3.01768 l 42.93334,42.93334 c 0.96017,0.96017 2.19468,3.29201 3.01768,5.62385 l -51.57487,0 0,-51.57487 z m 52.67221,209.59153 -175.574038,0 0,-210.68887 105.344418,0 0,57.06156 c 0,7.26986 5.89819,13.16805 13.16806,13.16805 l 57.06156,0 0,140.45926 z M 88.495842,906.80475 57.496051,948.09208 c -1.097337,1.50884 -1.097337,3.70352 0,5.21235 l 30.999791,41.28734 c 1.508839,1.92034 4.252184,2.33184 6.172525,0.823 l 6.995523,-5.21235 c 1.92035,-1.50884 2.33185,-4.25219 0.82301,-6.17253 L 77.522465,950.69826 102.4869,917.36662 c 1.50884,-1.92034 1.09734,-4.66368 -0.82301,-6.17252 l -6.995523,-5.21235 c -1.920341,-1.50884 -4.663686,-1.09734 -6.172525,0.823 z m 110.008108,41.28733 -30.99979,-41.28733 c -1.50884,-1.92034 -4.25219,-2.33184 -6.17253,-0.823 l -6.99552,5.21235 c -1.92035,1.50884 -2.33185,4.25218 -0.82301,6.17252 l 24.96444,33.33164 -24.96444,33.33163 c -1.50884,1.92034 -1.09734,4.66369 0.82301,6.17253 l 6.99552,5.21235 c 1.92034,1.50884 4.66369,1.09734 6.17253,-0.823 l 30.99979,-41.28734 c 1.09734,-1.50883 1.09734,-3.70351 0,-5.21235 z m -85.04367,63.23412 8.64153,1.3716 c 2.33184,0.4115 4.66369,-1.0973 5.07519,-3.5663 l 18.92907,-113.98596 c 0.4115,-2.33185 -1.09734,-4.66369 -3.56635,-5.07519 l -8.64153,-1.37167 c -2.33184,-0.41151 -4.66369,1.09733 -5.07519,3.56634 L 109.89393,1006.251 c -0.4115,2.3318 1.09734,4.6637 3.56635,5.0752 z"
         style="font-style:normal;font-variant:normal;font-weight:normal;font-stretch:normal;font-size:245.8036499px;line-height:125%;font-family:FontAwesome;-inkscape-font-specification:'FontAwesome, Normal';text-align:start;writing-mode:lr-tb;text-anchor:start;fill:#333333;fill-opacity:1"
         id="path3336" />
    </g>
  </g>
</svg>
