<?xml version="1.0" encoding="UTF-8" standalone="no"?>
<!-- Created with Inkscape (http://www.inkscape.org/) -->

<svg
   xmlns:dc="http://purl.org/dc/elements/1.1/"
   xmlns:cc="http://creativecommons.org/ns#"
   xmlns:rdf="http://www.w3.org/1999/02/22-rdf-syntax-ns#"
   xmlns:svg="http://www.w3.org/2000/svg"
   xmlns="http://www.w3.org/2000/svg"
   xmlns:sodipodi="http://sodipodi.sourceforge.net/DTD/sodipodi-0.dtd"
   xmlns:inkscape="http://www.inkscape.org/namespaces/inkscape"
   width="256"
   height="256"
   viewBox="0 0 256 256"
   id="svg2"
   version="1.1"
   inkscape:version="0.91 r13725"
   sodipodi:docname="filesave.svg"
   inkscape:export-filename="/home/daniel/cc/Bolt Wallet/src/qt/res/icons/filesave.png"
   inkscape:export-xdpi="90"
   inkscape:export-ydpi="90">
  <defs
     id="defs4" />
  <sodipodi:namedview
     id="base"
     pagecolor="#ffffff"
     bordercolor="#666666"
     borderopacity="1.0"
     inkscape:pageopacity="0.0"
     inkscape:pageshadow="2"
     inkscape:zoom="0.70710678"
     inkscape:cx="-370.69659"
     inkscape:cy="-87.78695"
     inkscape:document-units="px"
     inkscape:current-layer="layer1"
     showgrid="false"
     units="px"
     inkscape:window-width="1366"
     inkscape:window-height="718"
     inkscape:window-x="0"
     inkscape:window-y="25"
     inkscape:window-maximized="1" />
  <metadata
     id="metadata7">
    <rdf:RDF>
      <cc:Work
         rdf:about="">
        <dc:format>image/svg+xml</dc:format>
        <dc:type
           rdf:resource="http://purl.org/dc/dcmitype/StillImage" />
        <dc:title />
      </cc:Work>
    </rdf:RDF>
  </metadata>
  <g
     inkscape:label="Ebene 1"
     inkscape:groupmode="layer"
     id="layer1"
     transform="translate(0,-796.36216)">
    <g
       style="font-style:normal;font-variant:normal;font-weight:normal;font-stretch:normal;font-size:278.97305298px;line-height:125%;font-family:FontAwesome;-inkscape-font-specification:'FontAwesome, Normal';text-align:start;letter-spacing:0px;word-spacing:0px;writing-mode:lr-tb;text-anchor:start;fill:#333333;fill-opacity:1;stroke:none;stroke-width:1px;stroke-linecap:butt;stroke-linejoin:miter;stroke-opacity:1"
       id="text3649">
      <path
         d="m 68.22006,1023.9954 0,-59.77992 119.55988,0 0,59.77992 -119.55988,0 z m 139.48653,0 0,-64.76158 c 0,-8.25088 -6.69411,-14.94498 -14.94499,-14.94498 l -129.523202,0 c -8.250877,0 -14.944985,6.6941 -14.944985,14.94498 l 0,64.76158 -19.926647,0 0,-199.26644 19.926647,0 0,64.7616 c 0,8.25087 6.694108,14.94498 14.944985,14.94498 l 89.669912,0 c 8.25088,0 14.94498,-6.69411 14.94498,-14.94498 l 0,-64.7616 c 3.11354,0 9.18494,2.49083 11.36442,4.6703 l 43.74521,43.74522 c 2.02381,2.0238 4.67031,8.40655 4.67031,11.36442 l 0,139.4865 -19.92664,0 z M 147.92665,879.52723 c 0,2.64651 -2.33516,4.98167 -4.98167,4.98167 l -29.88997,0 c -2.6465,0 -4.98166,-2.33516 -4.98166,-4.98167 l 0,-49.81661 c 0,-2.64651 2.33516,-4.98166 4.98166,-4.98166 l 29.88997,0 c 2.64651,0 4.98167,2.33515 4.98167,4.98166 l 0,49.81661 z m 99.63323,4.98167 c 0,-8.25088 -4.67031,-19.6153 -10.58603,-25.53102 l -43.58954,-43.58954 c -5.91572,-5.91572 -17.28014,-10.58603 -25.53102,-10.58603 l -144.468185,0 c -8.250877,0 -14.9449853,6.69411 -14.9449853,14.94498 l 0,209.22981 c 0,8.2509 6.6941083,14.945 14.9449853,14.945 l 209.229785,0 c 8.25088,0 14.94499,-6.6941 14.94499,-14.945 l 0,-144.4682 z"
         style="fill:#333333;fill-opacity:1"
         id="path3336" />
    </g>
  </g>
</svg>
