<?xml version="1.0" encoding="UTF-8" standalone="no"?>
<!-- Created with Inkscape (http://www.inkscape.org/) -->

<svg
   xmlns:dc="http://purl.org/dc/elements/1.1/"
   xmlns:cc="http://creativecommons.org/ns#"
   xmlns:rdf="http://www.w3.org/1999/02/22-rdf-syntax-ns#"
   xmlns:svg="http://www.w3.org/2000/svg"
   xmlns="http://www.w3.org/2000/svg"
   xmlns:sodipodi="http://sodipodi.sourceforge.net/DTD/sodipodi-0.dtd"
   xmlns:inkscape="http://www.inkscape.org/namespaces/inkscape"
   width="256"
   height="256"
   viewBox="0 0 256 256"
   id="svg2"
   version="1.1"
   inkscape:version="0.91 r13725"
   sodipodi:docname="key.svg"
   inkscape:export-filename="/home/daniel/cc/Bolt Wallet/src/qt/res/icons/key.png"
   inkscape:export-xdpi="90"
   inkscape:export-ydpi="90">
  <defs
     id="defs4" />
  <sodipodi:namedview
     id="base"
     pagecolor="#ffffff"
     bordercolor="#666666"
     borderopacity="1.0"
     inkscape:pageopacity="0.0"
     inkscape:pageshadow="2"
     inkscape:zoom="0.49497475"
     inkscape:cx="-58.338499"
     inkscape:cy="357.33321"
     inkscape:document-units="px"
     inkscape:current-layer="layer1"
     showgrid="false"
     units="px"
     inkscape:window-width="1366"
     inkscape:window-height="718"
     inkscape:window-x="0"
     inkscape:window-y="25"
     inkscape:window-maximized="1" />
  <metadata
     id="metadata7">
    <rdf:RDF>
      <cc:Work
         rdf:about="">
        <dc:format>image/svg+xml</dc:format>
        <dc:type
           rdf:resource="http://purl.org/dc/dcmitype/StillImage" />
        <dc:title />
      </cc:Work>
    </rdf:RDF>
  </metadata>
  <g
     inkscape:label="Ebene 1"
     inkscape:groupmode="layer"
     id="layer1"
     transform="translate(0,-796.36216)">
    <g
       style="font-style:normal;font-variant:normal;font-weight:500;font-stretch:normal;font-size:413.94342041px;line-height:125%;font-family:RaphaelIcons;-inkscape-font-specification:'RaphaelIcons, Medium';text-align:start;letter-spacing:0px;word-spacing:0px;writing-mode:lr-tb;text-anchor:start;fill:#333333;fill-opacity:1;stroke:none;stroke-width:1px;stroke-linecap:butt;stroke-linejoin:miter;stroke-opacity:1"
       id="text3419">
      <path
         d="m 167.41356,924.15998 55.78534,88.93312 -7.68059,34.7648 -42.84961,-9.7018 4.44666,-19.4036 -14.5527,-3.2339 6.87211,-31.9351 -19.4036,-4.04241 2.82969,-13.74422 -25.46722,-6.06362 3.23393,-14.14846 -8.48907,4.8509 -2.02121,-0.40424 -4.04242,-7.27635 q -6.06362,0.80848 -11.723,0.80848 -14.956945,0 -29.105402,-5.65938 -19.807839,-8.48908 -31.126604,-27.08419 -11.318766,-17.38239 -11.318766,-37.19023 0,-8.08483 2.021208,-16.57391 6.467866,-28.70115 31.126605,-44.46657 17.38239,-11.72301 37.190229,-11.72301 8.08483,0 16.57391,2.02121 29.10539,6.46786 44.87082,31.1266 10.91452,17.78663 10.91452,37.59447 0,2.02121 0,4.04242 -1.21272,21.82905 -14.14846,39.21144 l 6.06363,9.29755 z M 90.60765,851.39649 q 5.659383,-3.63817 6.872108,-9.7018 0.404241,-1.61696 0.404241,-3.23393 0,-4.44666 -2.42545,-8.08483 -3.233932,-5.25514 -9.701798,-6.87211 -1.616967,-0.40424 -3.638175,-0.40424 -4.042416,0 -7.680591,2.42545 -5.255141,3.63817 -6.467866,9.7018 -0.808483,2.0212 -0.808483,3.63817 0,4.04242 2.42545,7.68059 3.233933,5.25514 9.701799,6.46787 1.616966,0.80848 3.233933,0.80848 4.446657,0 8.084832,-2.42545 z"
         style="fill:#333333;fill-opacity:1"
         id="path3336" />
    </g>
  </g>
</svg>
