<?xml version="1.0" encoding="UTF-8" standalone="no"?>
<!-- Created with Inkscape (http://www.inkscape.org/) -->

<svg
   xmlns:dc="http://purl.org/dc/elements/1.1/"
   xmlns:cc="http://creativecommons.org/ns#"
   xmlns:rdf="http://www.w3.org/1999/02/22-rdf-syntax-ns#"
   xmlns:svg="http://www.w3.org/2000/svg"
   xmlns="http://www.w3.org/2000/svg"
   xmlns:sodipodi="http://sodipodi.sourceforge.net/DTD/sodipodi-0.dtd"
   xmlns:inkscape="http://www.inkscape.org/namespaces/inkscape"
   width="256"
   height="256"
   viewBox="0 0 256 256"
   id="svg2"
   version="1.1"
   inkscape:version="0.91 r13725"
   sodipodi:docname="quit.svg"
   inkscape:export-filename="/home/daniel/cc/Bolt Wallet/src/qt/res/icons/quit.png"
   inkscape:export-xdpi="90"
   inkscape:export-ydpi="90">
  <defs
     id="defs4" />
  <sodipodi:namedview
     id="base"
     pagecolor="#ffffff"
     bordercolor="#666666"
     borderopacity="1.0"
     inkscape:pageopacity="0.0"
     inkscape:pageshadow="2"
     inkscape:zoom="0.70710678"
     inkscape:cx="-371.43109"
     inkscape:cy="-31.218407"
     inkscape:document-units="px"
     inkscape:current-layer="layer1"
     showgrid="false"
     units="px"
     inkscape:window-width="1366"
     inkscape:window-height="718"
     inkscape:window-x="0"
     inkscape:window-y="25"
     inkscape:window-maximized="1" />
  <metadata
     id="metadata7">
    <rdf:RDF>
      <cc:Work
         rdf:about="">
        <dc:format>image/svg+xml</dc:format>
        <dc:type
           rdf:resource="http://purl.org/dc/dcmitype/StillImage" />
        <dc:title />
      </cc:Work>
    </rdf:RDF>
  </metadata>
  <g
     inkscape:label="Ebene 1"
     inkscape:groupmode="layer"
     id="layer1"
     transform="translate(0,-796.36216)">
    <g
       style="font-style:normal;font-variant:normal;font-weight:normal;font-stretch:normal;font-size:367.03338623px;line-height:125%;font-family:FontAwesome;-inkscape-font-specification:'FontAwesome, Normal';text-align:start;letter-spacing:0px;word-spacing:0px;writing-mode:lr-tb;text-anchor:start;fill:#333333;fill-opacity:1;stroke:none;stroke-width:1px;stroke-linecap:butt;stroke-linejoin:miter;stroke-opacity:1"
       id="text3649">
      <path
         d="m 249.66174,998.50616 c 0,-5.12044 -2.04818,-10.24088 -5.7349,-13.9276 l -60.21641,-60.21642 60.21641,-60.21641 c 3.68672,-3.68672 5.7349,-8.80717 5.7349,-13.92761 0,-5.12044 -2.04818,-10.24089 -5.7349,-13.92761 L 216.07163,808.4353 c -3.68672,-3.68672 -8.80716,-5.7349 -13.92761,-5.7349 -5.12044,0 -10.24088,2.04818 -13.9276,5.7349 L 128,868.65172 67.783586,808.4353 c -3.686719,-3.68672 -8.807163,-5.7349 -13.927606,-5.7349 -5.120444,0 -10.240887,2.04818 -13.927606,5.7349 l -27.855213,27.85521 c -3.6867191,3.68672 -5.7348965,8.80717 -5.7348965,13.92761 0,5.12044 2.0481774,10.24089 5.7348965,13.92761 l 60.216415,60.21641 -60.216415,60.21642 c -3.6867191,3.68672 -5.7348965,8.80716 -5.7348965,13.9276 0,5.12044 2.0481774,10.24084 5.7348965,13.92764 l 27.855213,27.8552 c 3.686719,3.6867 8.807162,5.7349 13.927606,5.7349 5.120443,0 10.240887,-2.0482 13.927606,-5.7349 L 128,980.07257 188.21642,1040.289 c 3.68672,3.6867 8.80716,5.7349 13.9276,5.7349 5.12045,0 10.24089,-2.0482 13.92761,-5.7349 l 27.85521,-27.8552 c 3.68672,-3.6868 5.7349,-8.8072 5.7349,-13.92764 z"
         style="fill:#333333;fill-opacity:1"
         id="path3336" />
    </g>
  </g>
</svg>
