<?xml version="1.0" encoding="UTF-8" standalone="no"?>
<!-- Created with Inkscape (http://www.inkscape.org/) -->

<svg
   xmlns:dc="http://purl.org/dc/elements/1.1/"
   xmlns:cc="http://creativecommons.org/ns#"
   xmlns:rdf="http://www.w3.org/1999/02/22-rdf-syntax-ns#"
   xmlns:svg="http://www.w3.org/2000/svg"
   xmlns="http://www.w3.org/2000/svg"
   xmlns:sodipodi="http://sodipodi.sourceforge.net/DTD/sodipodi-0.dtd"
   xmlns:inkscape="http://www.inkscape.org/namespaces/inkscape"
   width="512"
   height="512"
   viewBox="0 0 512 512"
   id="svg2"
   version="1.1"
   inkscape:version="0.91 r13725"
   sodipodi:docname="receive.svg"
   inkscape:export-filename="/home/daniel/cc/Bolt Wallet/src/qt/res/icons/receive.png"
   inkscape:export-xdpi="90"
   inkscape:export-ydpi="90">
  <defs
     id="defs4" />
  <sodipodi:namedview
     id="base"
     pagecolor="#ffffff"
     bordercolor="#666666"
     borderopacity="1.0"
     inkscape:pageopacity="0.0"
     inkscape:pageshadow="2"
     inkscape:zoom="0.49497475"
     inkscape:cx="-377.97233"
     inkscape:cy="378.52092"
     inkscape:document-units="px"
     inkscape:current-layer="layer1"
     showgrid="false"
     units="px"
     inkscape:window-width="1366"
     inkscape:window-height="718"
     inkscape:window-x="0"
     inkscape:window-y="25"
     inkscape:window-maximized="1" />
  <metadata
     id="metadata7">
    <rdf:RDF>
      <cc:Work
         rdf:about="">
        <dc:format>image/svg+xml</dc:format>
        <dc:type
           rdf:resource="http://purl.org/dc/dcmitype/StillImage" />
        <dc:title />
      </cc:Work>
    </rdf:RDF>
  </metadata>
  <g
     inkscape:label="Ebene 1"
     inkscape:groupmode="layer"
     id="layer1"
     transform="translate(0,-540.36219)">
    <g
       transform="scale(-1,1)"
       style="font-style:normal;font-variant:normal;font-weight:500;font-stretch:normal;font-size:701.63812256px;line-height:125%;font-family:RaphaelIcons;-inkscape-font-specification:'RaphaelIcons, Medium';text-align:start;letter-spacing:0px;word-spacing:0px;writing-mode:lr-tb;text-anchor:start;fill:#333333;fill-opacity:1;stroke:none;stroke-width:1px;stroke-linecap:butt;stroke-linejoin:miter;stroke-opacity:1"
       id="text4136">
      <path
         d="m -241.26835,560.65564 q 63.72299,0 117.85328,31.5189 54.815474,31.5189 86.334374,86.33438 31.5188998,54.13028 31.5188998,117.85328 0,63.72299 -31.5188998,118.53847 -31.5189,54.13028 -86.334374,85.64923 -54.13029,31.5189 -117.85328,31.5189 -78.11206,0 -139.77947,-45.22282 -60.98222,-45.90796 -83.59361,-117.85327 l 55.50067,0 q 21.241,50.01912 66.46377,80.16763 45.90797,30.14852 101.40864,30.14852 76.05647,0 129.50156,-53.4451 53.445096,-53.44509 53.445096,-129.50156 0,-76.05648 -53.445096,-129.50157 -53.44509,-53.44509 -129.50156,-53.44509 -55.50067,0 -101.40864,30.8337 -45.22277,30.14852 -66.46377,80.16764 l -55.50067,0 q 23.29658,-71.94531 84.2788,-117.85328 60.98222,-45.90796 139.09428,-45.90796 z m -72.63051,308.33707 0,-40.42642 -192.53937,0 0,-64.40819 192.53937,0 0,-39.74122 125.3904,71.94532 -125.3904,72.63051 z"
         style="fill:#333333;fill-opacity:1"
         id="path3336" />
    </g>
  </g>
</svg>
