<?xml version="1.0" encoding="UTF-8" standalone="no"?>
<!-- Created with Inkscape (http://www.inkscape.org/) -->

<svg
   xmlns:dc="http://purl.org/dc/elements/1.1/"
   xmlns:cc="http://creativecommons.org/ns#"
   xmlns:rdf="http://www.w3.org/1999/02/22-rdf-syntax-ns#"
   xmlns:svg="http://www.w3.org/2000/svg"
   xmlns="http://www.w3.org/2000/svg"
   xmlns:sodipodi="http://sodipodi.sourceforge.net/DTD/sodipodi-0.dtd"
   xmlns:inkscape="http://www.inkscape.org/namespaces/inkscape"
   width="512"
   height="512"
   viewBox="0 0 512 512"
   id="svg2"
   version="1.1"
   inkscape:version="0.91 r13725"
   sodipodi:docname="send.svg"
   inkscape:export-filename="/home/daniel/cc/Bolt Wallet/src/qt/res/icons/send.png"
   inkscape:export-xdpi="90"
   inkscape:export-ydpi="90">
  <defs
     id="defs4" />
  <sodipodi:namedview
     id="base"
     pagecolor="#ffffff"
     bordercolor="#666666"
     borderopacity="1.0"
     inkscape:pageopacity="0.0"
     inkscape:pageshadow="2"
     inkscape:zoom="0.7"
     inkscape:cx="-256.04814"
     inkscape:cy="349.48814"
     inkscape:document-units="px"
     inkscape:current-layer="layer1"
     showgrid="false"
     units="px"
     inkscape:window-width="1366"
     inkscape:window-height="718"
     inkscape:window-x="0"
     inkscape:window-y="25"
     inkscape:window-maximized="1" />
  <metadata
     id="metadata7">
    <rdf:RDF>
      <cc:Work
         rdf:about="">
        <dc:format>image/svg+xml</dc:format>
        <dc:type
           rdf:resource="http://purl.org/dc/dcmitype/StillImage" />
        <dc:title />
      </cc:Work>
    </rdf:RDF>
  </metadata>
  <g
     inkscape:label="Ebene 1"
     inkscape:groupmode="layer"
     id="layer1"
     transform="translate(0,-540.36219)">
    <g
       style="font-style:normal;font-variant:normal;font-weight:500;font-stretch:normal;font-size:731.88464355px;line-height:125%;font-family:RaphaelIcons;-inkscape-font-specification:'RaphaelIcons, Medium';text-align:start;letter-spacing:0px;word-spacing:0px;writing-mode:lr-tb;text-anchor:start;fill:#333333;fill-opacity:1;stroke:none;stroke-width:1px;stroke-linecap:butt;stroke-linejoin:miter;stroke-opacity:1"
       id="text4136">
      <path
         d="m 422.88971,892.13612 72.18784,-42.16914 2.1442,-1.42946 q -18.58301,84.33827 -85.76774,139.37257 -66.46999,54.31951 -154.38191,54.31951 -66.47,0 -123.64848,-32.8776 Q 76.95986,976.47439 44.08223,920.01063 11.204599,862.83214 11.204599,796.36215 q 0,-66.46999 32.877631,-122.93375 32.87763,-57.17848 89.34139,-90.05611 57.17848,-32.87764 123.64848,-32.87764 87.91192,0 154.38191,55.0343 67.18473,55.03429 85.76774,139.37256 l -2.1442,-2.14419 -72.18784,-41.4544 q -25.73032,-43.5986 -70.04365,-69.32892 -43.59859,-26.44505 -95.77396,-26.44505 -79.33516,0 -135.08418,56.46376 -55.749026,55.74902 -55.749026,134.36944 0,79.33515 55.749026,135.08418 56.46376,55.74903 135.08418,55.74903 52.17537,0 95.77396,-25.73032 44.31333,-26.44505 70.04365,-69.32892 z m 77.90569,-95.77397 -130.08106,75.7615 0,-42.16914 -201.55417,0 0,-67.18472 201.55417,0 0,-41.4544 130.08106,75.04676 z"
         style="fill:#333333;fill-opacity:1"
         id="path3336" />
    </g>
  </g>
</svg>
