<?xml version="1.0" encoding="UTF-8" standalone="no"?>
<!-- Created with Inkscape (http://www.inkscape.org/) -->

<svg
   xmlns:dc="http://purl.org/dc/elements/1.1/"
   xmlns:cc="http://creativecommons.org/ns#"
   xmlns:rdf="http://www.w3.org/1999/02/22-rdf-syntax-ns#"
   xmlns:svg="http://www.w3.org/2000/svg"
   xmlns="http://www.w3.org/2000/svg"
   xmlns:sodipodi="http://sodipodi.sourceforge.net/DTD/sodipodi-0.dtd"
   xmlns:inkscape="http://www.inkscape.org/namespaces/inkscape"
   width="256"
   height="256"
   viewBox="0 0 256 256"
   id="svg2"
   version="1.1"
   inkscape:version="0.91 r13725"
   sodipodi:docname="transaction_conflicted.svg"
   inkscape:export-filename="/home/daniel/cc/Bolt Wallet/src/qt/res/icons/transaction_conflicted.png"
   inkscape:export-xdpi="90"
   inkscape:export-ydpi="90">
  <defs
     id="defs4" />
  <sodipodi:namedview
     id="base"
     pagecolor="#ffffff"
     bordercolor="#666666"
     borderopacity="1.0"
     inkscape:pageopacity="0.0"
     inkscape:pageshadow="2"
     inkscape:zoom="0.70710678"
     inkscape:cx="-293.26635"
     inkscape:cy="243.24963"
     inkscape:document-units="px"
     inkscape:current-layer="layer1"
     showgrid="false"
     units="px"
     inkscape:window-width="1366"
     inkscape:window-height="718"
     inkscape:window-x="0"
     inkscape:window-y="25"
     inkscape:window-maximized="1" />
  <metadata
     id="metadata7">
    <rdf:RDF>
      <cc:Work
         rdf:about="">
        <dc:format>image/svg+xml</dc:format>
        <dc:type
           rdf:resource="http://purl.org/dc/dcmitype/StillImage" />
        <dc:title />
      </cc:Work>
    </rdf:RDF>
  </metadata>
  <g
     inkscape:label="Ebene 1"
     inkscape:groupmode="layer"
     id="layer1"
     transform="translate(0,-796.36216)">
    <g
       style="font-style:normal;font-variant:normal;font-weight:normal;font-stretch:normal;font-size:246.82012939px;line-height:125%;font-family:FontAwesome;-inkscape-font-specification:'FontAwesome, Normal';text-align:start;letter-spacing:0px;word-spacing:0px;writing-mode:lr-tb;text-anchor:start;fill:#333333;fill-opacity:1;stroke:none;stroke-width:1px;stroke-linecap:butt;stroke-linejoin:miter;stroke-opacity:1"
       id="text3649">
      <path
         d="m 145.63001,999.15196 c 0,2.47924 -1.92828,4.54524 -4.4075,4.54524 l -26.44502,0 c -2.47922,0 -4.4075,-2.066 -4.4075,-4.54524 l 0,-26.16954 c 0,-2.47922 1.92828,-4.54524 4.4075,-4.54524 l 26.44502,0 c 2.47922,0 4.4075,2.06602 4.4075,4.54524 l 0,26.16954 z m -0.27547,-51.51268 c -0.13773,1.79055 -2.20375,3.16789 -4.68297,3.16789 l -25.48087,0 c -2.61696,0 -4.68297,-1.37734 -4.68297,-3.16789 l -2.34149,-62.94464 c 0,-0.82641 0.4132,-2.20375 1.37734,-2.89243 0.82641,-0.68867 2.06602,-1.51507 3.30563,-1.51507 l 30.30158,0 c 1.23961,0 2.47922,0.8264 3.30563,1.51507 0.96414,0.68868 1.37734,1.79055 1.37734,2.61696 l -2.47922,63.22011 z M 143.42626,818.99531 C 140.3961,813.34819 134.47352,809.7671 128,809.7671 c -6.47352,0 -12.3961,3.58109 -15.42626,9.22821 L 6.7936865,1012.9254 c -3.0301579,5.3717 -2.8924234,11.9829 0.2754689,17.3545 3.1678926,5.3717 8.9527386,8.6773 15.1507896,8.6773 l 211.560115,0 c 6.19805,0 11.98289,-3.3056 15.15078,-8.6773 3.1679,-5.3716 3.30563,-11.9828 0.27547,-17.3545 L 143.42626,818.99531 Z"
         style="fill:#333333;fill-opacity:1"
         id="path3336" />
    </g>
  </g>
</svg>
