<?xml version="1.0" encoding="UTF-8" standalone="no"?>
<!-- Created with Inkscape (http://www.inkscape.org/) -->

<svg
   xmlns:dc="http://purl.org/dc/elements/1.1/"
   xmlns:cc="http://creativecommons.org/ns#"
   xmlns:rdf="http://www.w3.org/1999/02/22-rdf-syntax-ns#"
   xmlns:svg="http://www.w3.org/2000/svg"
   xmlns="http://www.w3.org/2000/svg"
   xmlns:sodipodi="http://sodipodi.sourceforge.net/DTD/sodipodi-0.dtd"
   xmlns:inkscape="http://www.inkscape.org/namespaces/inkscape"
   width="512"
   height="512"
   viewBox="0 0 512 512"
   id="svg2"
   version="1.1"
   inkscape:version="0.91 r13725"
   sodipodi:docname="transactions.svg"
   inkscape:export-filename="/home/daniel/cc/Bolt Wallet/src/qt/res/icons/transactions.png"
   inkscape:export-xdpi="90"
   inkscape:export-ydpi="90">
  <defs
     id="defs4" />
  <sodipodi:namedview
     id="base"
     pagecolor="#ffffff"
     bordercolor="#666666"
     borderopacity="1.0"
     inkscape:pageopacity="0.0"
     inkscape:pageshadow="2"
     inkscape:zoom="0.7"
     inkscape:cx="63.630316"
     inkscape:cy="149.703"
     inkscape:document-units="px"
     inkscape:current-layer="layer1"
     showgrid="false"
     units="px"
     inkscape:window-width="1366"
     inkscape:window-height="718"
     inkscape:window-x="0"
     inkscape:window-y="25"
     inkscape:window-maximized="1" />
  <metadata
     id="metadata7">
    <rdf:RDF>
      <cc:Work
         rdf:about="">
        <dc:format>image/svg+xml</dc:format>
        <dc:type
           rdf:resource="http://purl.org/dc/dcmitype/StillImage" />
        <dc:title />
      </cc:Work>
    </rdf:RDF>
  </metadata>
  <g
     inkscape:label="Ebene 1"
     inkscape:groupmode="layer"
     id="layer1"
     transform="translate(0,-540.36219)">
    <g
       style="font-style:normal;font-variant:normal;font-weight:500;font-stretch:normal;font-size:659.39886475px;line-height:125%;font-family:RaphaelIcons;-inkscape-font-specification:'RaphaelIcons, Medium';text-align:start;letter-spacing:0px;word-spacing:0px;writing-mode:lr-tb;text-anchor:start;fill:#333333;fill-opacity:1;stroke:none;stroke-width:1px;stroke-linecap:butt;stroke-linejoin:miter;stroke-opacity:1"
       id="text4136">
      <path
         d="m 256.64394,601.89107 q -79.84908,0 -136.51617,56.66709 -56.667087,56.02314 -56.667087,135.87223 0,65.03836 39.924537,117.84179 l -36.060872,27.6896 Q 17.740645,876.2113 17.740645,794.43039 q 0,-64.39442 31.553266,-119.12968 32.19721,-55.3792 86.932469,-86.93247 54.73526,-32.19721 120.41756,-32.19721 41.85638,0 81.13697,14.16677 l 13.52283,-23.18199 25.75777,44.43215 25.75777,45.0761 -103.03107,0 14.81071,-25.11383 q -29.62143,-9.65916 -57.95498,-9.65916 z m 188.67566,47.65187 q 48.93976,63.75048 48.93976,142.95561 0,66.32626 -31.55327,121.70546 -31.55327,55.3792 -86.93247,87.57639 -54.73526,31.5533 -119.12968,31.5533 -39.92454,0 -77.91724,-12.8789 l -14.81072,25.1138 -25.11383,-45.0761 -25.75776,-45.07606 102.38713,0 -12.87889,23.82593 q 27.04566,8.37128 54.09131,8.37128 79.84909,-0.64395 135.87223,-56.66709 56.66709,-56.66709 56.66709,-136.51617 0,-65.03837 -40.56848,-117.19785 l 36.70482,-27.6896 z"
         style="fill:#333333;fill-opacity:1"
         id="path3336" />
    </g>
  </g>
</svg>
